<svg width="70" height="70" viewBox="0 0 70 70" fill="none" xmlns="http://www.w3.org/2000/svg">
<path fill-rule="evenodd" clip-rule="evenodd" d="M4.375 35C4.375 43.1223 7.60155 50.9118 13.3449 56.6551C19.0882 62.3984 26.8777 65.625 35 65.625C43.1223 65.625 50.9118 62.3984 56.6551 56.6551C62.3984 50.9118 65.625 43.1223 65.625 35C65.625 26.8777 62.3984 19.0882 56.6551 13.3449C50.9118 7.60155 43.1223 4.375 35 4.375C26.8777 4.375 19.0882 7.60155 13.3449 13.3449C7.60155 19.0882 4.375 26.8777 4.375 35ZM70 35C70 44.2826 66.3125 53.185 59.7487 59.7487C53.185 66.3125 44.2826 70 35 70C25.7174 70 16.815 66.3125 10.2513 59.7487C3.68749 53.185 0 44.2826 0 35C0 25.7174 3.68749 16.815 10.2513 10.2513C16.815 3.68749 25.7174 0 35 0C44.2826 0 53.185 3.68749 59.7487 10.2513C66.3125 16.815 70 25.7174 70 35ZM37.1875 50.3125C37.1875 50.8927 36.957 51.4491 36.5468 51.8593C36.1366 52.2695 35.5802 52.5 35 52.5C34.4198 52.5 33.8634 52.2695 33.4532 51.8593C33.043 51.4491 32.8125 50.8927 32.8125 50.3125V24.9681L23.4237 34.3613C23.013 34.772 22.4559 35.0028 21.875 35.0028C21.2941 35.0028 20.737 34.772 20.3263 34.3613C19.9155 33.9505 19.6847 33.3934 19.6847 32.8125C19.6847 32.2316 19.9155 31.6745 20.3263 31.2638L33.4512 18.1388C33.6544 17.935 33.8958 17.7734 34.1616 17.6631C34.4274 17.5529 34.7123 17.4961 35 17.4961C35.2877 17.4961 35.5726 17.5529 35.8384 17.6631C36.1042 17.7734 36.3456 17.935 36.5488 18.1388L49.6738 31.2638C50.0845 31.6745 50.3153 32.2316 50.3153 32.8125C50.3153 33.3934 50.0845 33.9505 49.6738 34.3613C49.263 34.772 48.7059 35.0028 48.125 35.0028C47.5441 35.0028 46.987 34.772 46.5762 34.3613L37.1875 24.9681V50.3125Z" fill="white"/>
</svg>
