<svg width="36" height="36" viewBox="0 0 36 36" fill="none" xmlns="http://www.w3.org/2000/svg">
<path fill-rule="evenodd" clip-rule="evenodd" d="M7.1493 21.255C6.28596 21.255 5.45799 20.9121 4.84752 20.3016C4.23705 19.6911 3.89409 18.8632 3.89409 17.9998C3.89409 17.1365 4.23705 16.3085 4.84752 15.6981C5.45799 15.0876 6.28596 14.7446 7.1493 14.7446C8.01263 14.7446 8.84061 15.0876 9.45108 15.6981C10.0615 16.3085 10.4045 17.1365 10.4045 17.9998C10.4045 18.8632 10.0615 19.6911 9.45108 20.3016C8.84061 20.9121 8.01263 21.255 7.1493 21.255ZM18 21.255C17.1367 21.255 16.3087 20.9121 15.6982 20.3016C15.0877 19.6911 14.7448 18.8632 14.7448 17.9998C14.7448 17.1365 15.0877 16.3085 15.6982 15.6981C16.3087 15.0876 17.1367 14.7446 18 14.7446C18.8633 14.7446 19.6913 15.0876 20.3018 15.6981C20.9122 16.3085 21.2552 17.1365 21.2552 17.9998C21.2552 18.8632 20.9122 19.6911 20.3018 20.3016C19.6913 20.9121 18.8633 21.255 18 21.255ZM28.8507 21.255C27.9874 21.255 27.1594 20.9121 26.5489 20.3016C25.9384 19.6911 25.5955 18.8632 25.5955 17.9998C25.5955 17.1365 25.9384 16.3085 26.5489 15.6981C27.1594 15.0876 27.9874 14.7446 28.8507 14.7446C29.714 14.7446 30.542 15.0876 31.1525 15.6981C31.7629 16.3085 32.1059 17.1365 32.1059 17.9998C32.1059 18.8632 31.7629 19.6911 31.1525 20.3016C30.542 20.9121 29.714 21.255 28.8507 21.255Z" fill="#40C5E9"/>
</svg>
