<svg width="36" height="36" viewBox="0 0 36 36" fill="none" xmlns="http://www.w3.org/2000/svg">
<path d="M12.213 4.979C8.21846 4.979 4.97916 8.2183 4.97916 12.2128V23.7869C4.97916 27.7814 8.21846 31.0207 12.213 31.0207H23.787C27.7815 31.0207 31.0208 27.7814 31.0208 23.7869V12.2128C31.0208 8.2183 27.7815 4.979 23.787 4.979H12.213ZM26.6806 7.87252C27.4792 7.87252 28.1273 8.52067 28.1273 9.31928C28.1273 10.1179 27.4792 10.766 26.6806 10.766C25.8819 10.766 25.2338 10.1179 25.2338 9.31928C25.2338 8.52067 25.8819 7.87252 26.6806 7.87252ZM18 10.766C21.9945 10.766 25.2338 14.0053 25.2338 17.9998C25.2338 21.9943 21.9945 25.2336 18 25.2336C14.0055 25.2336 10.7662 21.9943 10.7662 17.9998C10.7662 14.0053 14.0055 10.766 18 10.766ZM18 13.6596C16.8489 13.6596 15.7449 14.1168 14.931 14.9308C14.117 15.7448 13.6597 16.8487 13.6597 17.9998C13.6597 19.1509 14.117 20.2549 14.931 21.0689C15.7449 21.8828 16.8489 22.3401 18 22.3401C19.1511 22.3401 20.2551 21.8828 21.069 21.0689C21.883 20.2549 22.3403 19.1509 22.3403 17.9998C22.3403 16.8487 21.883 15.7448 21.069 14.9308C20.2551 14.1168 19.1511 13.6596 18 13.6596Z" fill="#40C5E9"/>
</svg>
