<svg width="36" height="36" viewBox="0 0 36 36" fill="none" xmlns="http://www.w3.org/2000/svg">
<g clip-path="url(#clip0_64:69)">
<path d="M21.0811 2.95361C18.6539 2.95361 16.8426 4.93641 16.8426 7.19217V11.0962C13.6594 11.2651 10.7483 12.1138 8.42426 13.4449C7.52868 12.5849 6.3295 12.203 5.16679 12.2038C3.90616 12.2048 2.61742 12.6416 1.72848 13.6415L1.70814 13.6642L1.68779 13.6868C0.835047 14.7525 0.49739 16.1802 0.724792 17.5975C0.932467 18.8919 1.68214 20.1914 2.98535 21.0426C2.97682 21.1863 2.95371 21.327 2.95371 21.4721C2.95371 27.2152 9.7037 31.8888 18 31.8888C26.2963 31.8888 33.0463 27.2152 33.0463 21.4721C33.0463 21.327 33.0232 21.1863 33.0146 21.0426C34.3179 20.1914 35.0675 18.8919 35.2752 17.5975C35.5026 16.1802 35.165 14.7525 34.3122 13.6868L34.2919 13.6642L34.2715 13.6415C33.3825 12.6415 32.0939 12.2048 30.8332 12.2038C29.6704 12.203 28.471 12.5846 27.5757 13.4449C25.2517 12.1138 22.3406 11.2651 19.1574 11.0962V7.19217C19.1574 6.05903 19.8116 5.26843 21.0811 5.26843C21.6838 5.26843 22.4179 5.5704 23.5678 5.97372C24.5398 6.31467 25.8048 6.65928 27.422 6.76266C27.8089 7.90626 28.8829 8.74065 30.1528 8.74065C31.7442 8.74065 33.0463 7.43857 33.0463 5.84713C33.0463 4.2557 31.7442 2.95361 30.1528 2.95361C29.0662 2.95361 28.1245 3.56753 27.63 4.45915C26.2475 4.38258 25.2318 4.1049 24.3341 3.79002C23.288 3.42309 22.3269 2.95361 21.0811 2.95361ZM5.16679 14.5186C5.62413 14.5183 6.05865 14.6383 6.41688 14.8329C5.13912 15.8994 4.16964 17.1455 3.5844 18.5063C3.27365 18.1227 3.0864 17.692 3.01248 17.2313C2.88775 16.4539 3.1204 15.6458 3.48946 15.1674C3.83822 14.792 4.47507 14.5192 5.16679 14.5186ZM30.8309 14.5186C31.5229 14.5192 32.1619 14.7921 32.5105 15.1674C32.8796 15.6458 33.1122 16.4539 32.9875 17.2313C32.9136 17.692 32.7263 18.1227 32.4156 18.5063C31.8304 17.1455 30.8609 15.8994 29.5831 14.8329C29.9405 14.6386 30.3738 14.5183 30.8309 14.5186ZM12.213 16.8425C13.4919 16.8425 14.5278 17.8784 14.5278 19.1573C14.5278 20.4363 13.4919 21.4721 12.213 21.4721C10.934 21.4721 9.89815 20.4363 9.89815 19.1573C9.89815 17.8784 10.934 16.8425 12.213 16.8425ZM23.787 16.8425C25.066 16.8425 26.1019 17.8784 26.1019 19.1573C26.1019 20.4363 25.066 21.4721 23.787 21.4721C22.5081 21.4721 21.4722 20.4363 21.4722 19.1573C21.4722 17.8784 22.5081 16.8425 23.787 16.8425ZM24.0628 23.2467C23.3232 25.4076 20.9583 27.2592 18 27.2592C15.0417 27.2592 12.6768 25.4084 11.9372 23.4027C13.2682 24.4825 15.4861 25.2541 18 25.2541C20.5139 25.2541 22.7318 24.4816 24.0628 23.2467Z" fill="#40C5E9"/>
</g>
<defs>
<clipPath id="clip0_64:69">
<rect width="34.7222" height="34.7222" fill="white" transform="translate(0.638889 0.638672)"/>
</clipPath>
</defs>
</svg>
