<svg width="36" height="36" viewBox="0 0 36 36" fill="none" xmlns="http://www.w3.org/2000/svg">
<path d="M33.0463 8.66762C31.9387 9.15952 30.7488 9.49054 29.5 9.63985C30.7755 8.87596 31.7535 7.66647 32.2141 6.22434C31.022 6.93151 29.7002 7.4454 28.2928 7.72318C27.1667 6.52295 25.5625 5.77295 23.787 5.77295C20.3773 5.77295 17.6134 8.538 17.6134 11.9466C17.6134 12.4304 17.669 12.9026 17.7731 13.3528C12.6424 13.0959 8.09375 10.6375 5.04745 6.90142C4.51736 7.81346 4.21296 8.87364 4.21296 10.0067C4.21296 12.1479 5.30208 14.038 6.95833 15.1445C5.94676 15.1121 4.99421 14.8343 4.16204 14.3725C4.16204 14.3991 4.16204 14.4234 4.16204 14.45C4.16204 17.4419 6.28935 19.9373 9.11458 20.5033C8.59722 20.6445 8.05092 20.7197 7.48727 20.7197C7.09028 20.7197 6.70255 20.6804 6.32639 20.6098C7.11227 23.0623 9.39236 24.8482 12.0938 24.8979C9.98148 26.5542 7.31944 27.5415 4.42593 27.5415C3.92824 27.5415 3.43634 27.5125 2.95255 27.4547C5.68518 29.2058 8.9294 30.2278 12.4167 30.2278C23.7731 30.2278 29.9815 20.8204 29.9815 12.6618C29.9815 12.3945 29.9757 12.1283 29.9641 11.8632C31.1713 10.9917 32.2188 9.90489 33.0463 8.66762Z" fill="#64CFED"/>
</svg>
